<?xml version="1.0" encoding="UTF-8" standalone="no"?>
<!-- Created with Inkscape (http://www.inkscape.org/) -->

<svg
   xmlns:dc="http://purl.org/dc/elements/1.1/"
   xmlns:cc="http://creativecommons.org/ns#"
   xmlns:rdf="http://www.w3.org/1999/02/22-rdf-syntax-ns#"
   xmlns:svg="http://www.w3.org/2000/svg"
   xmlns="http://www.w3.org/2000/svg"
   xmlns:sodipodi="http://sodipodi.sourceforge.net/DTD/sodipodi-0.dtd"
   xmlns:inkscape="http://www.inkscape.org/namespaces/inkscape"
   width="23.405916mm"
   height="22.040262mm"
   viewBox="0 0 23.405916 22.040262"
   id="svg4726"
   version="1.1"
   inkscape:version="0.91+devel r14094"
   sodipodi:docname="footer.svg">
  <defs
     id="defs4728" />
  <sodipodi:namedview
     id="base"
     pagecolor="#ffffff"
     bordercolor="#666666"
     borderopacity="1.0"
     inkscape:pageopacity="0.0"
     inkscape:pageshadow="2"
     inkscape:zoom="2.8"
     inkscape:cx="97.038287"
     inkscape:cy="39.605949"
     inkscape:document-units="mm"
     inkscape:current-layer="g4669"
     showgrid="false"
     fit-margin-top="0"
     fit-margin-left="0"
     fit-margin-right="0"
     fit-margin-bottom="0"
     showborder="false"
     inkscape:window-width="1280"
     inkscape:window-height="751"
     inkscape:window-x="0"
     inkscape:window-y="0"
     inkscape:window-maximized="1" />
  <metadata
     id="metadata4731">
    <rdf:RDF>
      <cc:Work
         rdf:about="">
        <dc:format>image/svg+xml</dc:format>
        <dc:type
           rdf:resource="http://purl.org/dc/dcmitype/StillImage" />
        <dc:title></dc:title>
      </cc:Work>
    </rdf:RDF>
  </metadata>
  <g
     inkscape:label="Layer 1"
     inkscape:groupmode="layer"
     id="layer1"
     transform="translate(187.08391,-10.057249)">
    <g
       transform="matrix(0.26458333,0,0,0.26458333,-396.69174,-59.092466)"
       style="display:inline"
       id="g4669">
      <path
         sodipodi:nodetypes="cc"
         inkscape:connector-curvature="0"
         id="path13979"
         d="m 792.75453,308.91257 c 31.67211,-32.7391 62.10931,-28.82788 62.10931,-28.82788"
         style="opacity:0;fill:none;stroke:#000000;stroke-width:1.49139309px;stroke-linecap:butt;stroke-linejoin:miter;stroke-opacity:1" />
      <g
         transform="matrix(1.0573276,0.07503558,-0.07503558,1.0573276,-28.878229,-71.919702)"
         id="g14218">
        <path
           style="fill:none;stroke:#474747;stroke-width:30;stroke-linecap:round;stroke-linejoin:miter;stroke-miterlimit:4;stroke-dasharray:none;stroke-opacity:1"
           d="m 812.08316,275.22377 c 9.60871,-4.97982 39.06371,-5.65674 52.51389,0.64483"
           id="path14130"
           inkscape:connector-curvature="0"
           sodipodi:nodetypes="cc" />
        <g
           id="text13981"
           style="font-style:normal;font-variant:normal;font-weight:bold;font-stretch:normal;font-size:16px;line-height:150%;font-family:Dosis;-inkscape-font-specification:'Dosis Bold';text-align:start;letter-spacing:0px;word-spacing:0px;writing-mode:lr-tb;text-anchor:start;fill:#ffffff;fill-opacity:1;stroke:none"
           transform="rotate(30,860.21647,319.22427)">
          <path
             inkscape:connector-curvature="0"
             id="path14282"
             style="font-family:Dosis;-inkscape-font-specification:'Dosis Bold';fill:#ffffff"
             d="m 795.617,307.7917 -3.08727,-3.22429 c -0.87048,-0.90911 -1.26205,-1.8116 -1.17471,-2.70748 0.08,-0.90356 0.51673,-1.73526 1.31028,-2.49511 0.80896,-0.77457 1.65949,-1.20499 2.55158,-1.29125 0.8998,-0.0936 1.66691,0.19085 2.30133,0.85342 0.27295,0.28507 0.40328,0.53686 0.39099,0.75537 -0.0197,0.21082 -0.16432,0.44532 -0.43397,0.70351 -0.49309,0.47213 -0.89471,0.55395 -1.20487,0.24543 -0.1036,-0.0928 -0.19631,-0.16645 -0.27811,-0.22105 -0.0815,-0.0697 -0.2045,-0.13645 -0.36909,-0.20039 -0.16426,-0.079 -0.32179,-0.12013 -0.47261,-0.12342 -0.15819,-0.011 -0.34014,0.0303 -0.54587,0.12395 -0.2131,0.0859 -0.42367,0.22845 -0.63169,0.42762 -0.80895,0.7746 -0.78926,1.60489 0.0591,2.49089 l 3.08728,3.22429 c 0.84835,0.88601 1.68471,0.93434 2.50908,0.145 0.24654,-0.23606 0.41382,-0.47008 0.50185,-0.70204 0.0957,-0.23933 0.11186,-0.46154 0.0484,-0.66662 -0.0631,-0.22014 -0.13476,-0.39522 -0.21493,-0.52522 -0.0798,-0.14506 -0.19336,-0.30218 -0.34057,-0.47136 -0.27935,-0.338 -0.18404,-0.73201 0.28593,-1.18201 0.26966,-0.25819 0.5139,-0.38868 0.73275,-0.39148 0.21917,-0.0179 0.46523,0.11572 0.73818,0.40078 0.66393,0.6934 0.93697,1.49524 0.81914,2.40553 -0.11014,0.90293 -0.57353,1.74537 -1.3902,2.52733 -0.79355,0.75983 -1.63973,1.16394 -2.53855,1.21232 -0.89849,0.0333 -1.78297,-0.4046 -2.65346,-1.31372" />
          <path
             inkscape:connector-curvature="0"
             id="path14284"
             style="font-family:Dosis;-inkscape-font-specification:'Dosis Bold';fill:#ffffff"
             d="m 804.15901,303.72164 -6.51625,-8.10545 c -0.13366,-0.16626 -0.15494,-0.35445 -0.0638,-0.56458 0.0911,-0.2101 0.24891,-0.40539 0.47336,-0.58585 0.22447,-0.18044 0.44909,-0.29259 0.67387,-0.33645 0.22479,-0.0438 0.40402,0.0174 0.53768,0.18362 l 2.61653,3.25466 2.80573,-2.25563 -2.61652,-3.25465 c -0.13367,-0.16625 -0.15494,-0.35444 -0.0638,-0.56457 0.0911,-0.21011 0.24891,-0.40539 0.47337,-0.58585 0.22446,-0.18044 0.44908,-0.29259 0.67387,-0.33645 0.22478,-0.0438 0.40401,0.0174 0.53768,0.18362 l 6.51625,8.10546 c 0.12698,0.15796 0.14409,0.34949 0.0513,0.5746 -0.0844,0.21843 -0.23473,0.41453 -0.45087,0.58829 -0.22447,0.18046 -0.45243,0.28845 -0.68389,0.32398 -0.23148,0.0355 -0.4107,-0.0257 -0.53768,-0.18362 l -2.87718,-3.57887 -2.80573,2.25562 2.87717,3.57887 c 0.12698,0.15796 0.1441,0.34949 0.0514,0.5746 -0.0844,0.21843 -0.23473,0.41453 -0.45087,0.5883 -0.22446,0.18045 -0.45242,0.28844 -0.68389,0.32398 -0.23147,0.0355 -0.4107,-0.0257 -0.53768,-0.18363" />
          <path
             inkscape:connector-curvature="0"
             id="path14286"
             style="font-family:Dosis;-inkscape-font-specification:'Dosis Bold';fill:#ffffff"
             d="m 811.82816,297.69905 -5.71568,-8.6694 c -0.11155,-0.16919 -0.12392,-0.35268 -0.0371,-0.55046 0.0868,-0.19776 0.23263,-0.36416 0.43745,-0.49921 l 4.75548,-3.13526 c 0.17811,-0.11741 0.36159,-0.12978 0.55046,-0.0371 0.19777,0.0868 0.36124,0.22819 0.49041,0.42409 0.14091,0.21374 0.21229,0.4286 0.21414,0.64456 0.002,0.21599 -0.0818,0.37975 -0.25102,0.49129 l -3.78034,2.49235 1.76138,2.67162 2.03043,-1.33865 c 0.1692,-0.11154 0.34975,-0.12837 0.54165,-0.0505 0.18603,0.069 0.34069,0.19701 0.46399,0.38401 0.11155,0.16921 0.16532,0.35735 0.1613,0.56441 -9.9e-4,0.1923 -0.0905,0.34716 -0.26864,0.46458 l -2.03043,1.33865 1.77019,2.68497 3.78034,-2.49235 c 0.16919,-0.11155 0.35268,-0.12392 0.55046,-0.0371 0.19776,0.0868 0.3671,0.23708 0.50802,0.45081 0.12916,0.19592 0.19467,0.40187 0.19653,0.61784 0.0107,0.21011 -0.0729,0.37387 -0.25103,0.49129 l -4.75548,3.13526 c -0.20482,0.13504 -0.41522,0.20349 -0.6312,0.20534 -0.21597,0.002 -0.37974,-0.0818 -0.49129,-0.25103" />
          <path
             inkscape:connector-curvature="0"
             id="path14288"
             style="font-family:Dosis;-inkscape-font-specification:'Dosis Bold';fill:#ffffff"
             d="m 819.00164,293.07393 -4.85038,-9.18157 c -0.0947,-0.17919 -0.0892,-0.36301 0.0163,-0.55147 0.10553,-0.18843 0.26676,-0.33995 0.48368,-0.45456 l 5.03642,-2.66061 c 0.18863,-0.0996 0.37246,-0.0942 0.55147,0.0163 0.18845,0.10554 0.33748,0.26205 0.44709,0.46953 0.11958,0.22637 0.16985,0.44712 0.1508,0.66225 -0.019,0.21515 -0.11817,0.37006 -0.29736,0.46471 l -4.00367,2.11504 1.49472,2.82945 2.15038,-1.13599 c 0.1792,-0.0947 0.36053,-0.0939 0.544,0.002 0.17848,0.0867 0.32004,0.22903 0.42467,0.42709 0.0947,0.1792 0.12998,0.37166 0.10596,0.57736 -0.0196,0.1913 -0.12369,0.33678 -0.31231,0.43642 l -2.15039,1.13599 1.5022,2.8436 4.00368,-2.11504 c 0.17919,-0.0947 0.36301,-0.0892 0.55147,0.0163 0.18844,0.10553 0.34245,0.27147 0.46203,0.49782 0.10961,0.2075 0.15489,0.41882 0.13586,0.63396 -0.01,0.21016 -0.10875,0.36506 -0.29737,0.46471 l -5.03642,2.66061 c -0.21693,0.1146 -0.43296,0.16237 -0.6481,0.14333 -0.21515,-0.019 -0.37005,-0.11817 -0.46472,-0.29737" />
          <path
             inkscape:connector-curvature="0"
             id="path14290"
             style="font-family:Dosis;-inkscape-font-specification:'Dosis Bold';fill:#ffffff"
             d="m 826.59538,289.15387 -3.8174,-9.67406 c -0.0626,-0.15874 -0.0579,-0.32115 0.0142,-0.48721 0.0721,-0.16603 0.19743,-0.28429 0.37602,-0.35478 l 2.94687,-1.16284 c 2.35154,-0.92791 3.93645,-0.35501 4.75475,1.7187 0.32105,0.81362 0.40086,1.53896 0.23943,2.176 -0.15151,0.63315 -0.48969,1.15648 -1.01454,1.56999 l 3.37682,2.84725 c 0.0731,0.04 0.12922,0.10955 0.16838,0.20877 0.0979,0.24806 0.0609,0.53213 -0.11093,0.85221 -0.17577,0.31016 -0.40751,0.52201 -0.69525,0.63555 -0.28775,0.11355 -0.57168,0.0478 -0.8518,-0.19709 l -3.73434,-3.2738 -1.25018,0.49332 1.53283,3.88451 c 0.0744,0.18852 0.0389,0.37455 -0.10659,0.55808 -0.14546,0.18353 -0.35213,0.32816 -0.62003,0.43387 -0.25797,0.1018 -0.50772,0.13728 -0.74923,0.10644 -0.23158,-0.0348 -0.38457,-0.14639 -0.45896,-0.33491 m -0.19706,-6.16607 1.63715,-0.64602 c 1.06166,-0.41893 1.38498,-1.15427 0.96997,-2.20602 -0.41894,-1.06166 -1.15924,-1.38302 -2.22091,-0.9641 l -1.63715,0.64602 1.25094,3.17012" />
          <path
             inkscape:connector-curvature="0"
             id="path14292"
             style="font-family:Dosis;-inkscape-font-specification:'Dosis Bold';fill:#ffffff"
             d="m 834.35295,284.8952 c -0.062,-0.23736 -0.0364,-0.49765 0.077,-0.78087 0.12101,-0.29624 0.29503,-0.47403 0.52206,-0.53339 0.13416,-0.0351 0.29999,-0.0123 0.49748,0.0684 0.20781,0.078 0.40935,0.17413 0.60462,0.28845 0.20289,0.10131 0.47016,0.17477 0.80181,0.22036 0.33165,0.0456 0.67807,0.0212 1.03927,-0.0733 0.49534,-0.1295 0.87846,-0.35094 1.14934,-0.66431 0.27087,-0.31337 0.34831,-0.69193 0.2323,-1.13569 -0.081,-0.30959 -0.24532,-0.55878 -0.49313,-0.74758 -0.24019,-0.2018 -0.53016,-0.34099 -0.8699,-0.41755 -0.33212,-0.0896 -0.69251,-0.16072 -1.08115,-0.21348 -0.39134,-0.0631 -0.79189,-0.14025 -1.20165,-0.23159 -0.39944,-0.094 -0.77847,-0.21542 -1.1371,-0.36423 -0.35101,-0.1618 -0.66931,-0.40934 -0.95489,-0.74262 -0.27796,-0.34628 -0.48169,-0.7671 -0.61119,-1.26246 -0.143,-0.54694 -0.16009,-1.05514 -0.0513,-1.5246 0.11642,-0.48245 0.33071,-0.88577 0.64287,-1.20994 0.30946,-0.33448 0.66225,-0.60863 1.05838,-0.82245 0.39344,-0.22413 0.82751,-0.39825 1.30222,-0.52237 0.26832,-0.0701 0.55751,-0.12369 0.86758,-0.16066 0.30736,-0.0473 0.63696,-0.0728 0.98878,-0.0766 0.36213,-0.006 0.66933,0.051 0.9216,0.1725 0.26257,0.11879 0.42489,0.29686 0.48695,0.5342 0.0593,0.22705 0.0492,0.48329 -0.0306,0.76873 -0.0824,0.27514 -0.24747,0.44508 -0.49514,0.50982 -0.0929,0.0243 -0.37135,-0.008 -0.8354,-0.0958 -0.46406,-0.0882 -0.94892,-0.0661 -1.45459,0.0661 -0.55727,0.1457 -0.96238,0.36738 -1.21531,0.66502 -0.24532,0.28465 -0.31941,0.61273 -0.22228,0.98423 0.0782,0.29928 0.27087,0.53006 0.57791,0.69234 0.30433,0.15197 0.65598,0.25298 1.05494,0.30302 0.40659,0.037 0.84977,0.1086 1.32954,0.21469 0.48739,0.0931 0.94406,0.21625 1.37001,0.36949 0.43626,0.15056 0.84028,0.43081 1.21207,0.84076 0.36908,0.39965 0.63591,0.91422 0.80049,1.54373 0.28059,1.07326 0.15722,1.99304 -0.3701,2.75933 -0.5197,0.75328 -1.33166,1.27427 -2.43588,1.56295 -0.98038,0.25631 -1.87406,0.27496 -2.68103,0.0559 -0.80697,-0.21901 -1.2725,-0.56587 -1.39661,-1.04058" />
          <path
             inkscape:connector-curvature="0"
             id="path14294"
             style="font-family:Dosis;-inkscape-font-specification:'Dosis Bold';fill:#ffffff"
             d="m 843.46997,284.37792 c -0.23514,-0.17689 -0.37741,-0.41261 -0.42678,-0.70717 -0.0494,-0.29456 0.008,-0.56379 0.17285,-0.80769 0.17513,-0.24567 0.41523,-0.39407 0.72031,-0.44521 0.29456,-0.0494 0.56467,0.0135 0.81033,0.18863 0.24567,0.17513 0.39319,0.40998 0.44257,0.70453 0.0476,0.28404 -0.0153,0.55415 -0.18863,0.81034 -0.17514,0.24566 -0.40998,0.39318 -0.70453,0.44256 -0.30508,0.0511 -0.58045,-0.0109 -0.82612,-0.18599 m -1.98257,-10.47234 c -0.0458,-0.2735 0.008,-0.49889 0.16245,-0.67616 0.16291,-0.18953 0.38638,-0.3081 0.67042,-0.35573 0.28404,-0.0476 0.53396,-0.008 0.74977,0.11767 0.21581,0.12607 0.34576,0.3206 0.38984,0.58358 0.11639,0.69432 0.27354,1.85768 0.47147,3.49008 0.19793,1.63241 0.35508,2.79577 0.47147,3.49008 0.0317,0.18936 -0.0277,0.35075 -0.17842,0.48416 -0.14016,0.13165 -0.30492,0.21335 -0.49428,0.24509 -0.51547,0.0864 -0.80672,-0.0703 -0.87373,-0.47003 -0.11638,-0.6943 -0.34718,-1.84532 -0.69238,-3.45304 -0.33469,-1.60948 -0.56022,-2.76138 -0.67661,-3.4557" />
        </g>
        <path
           sodipodi:nodetypes="cccc"
           inkscape:connector-curvature="0"
           id="path14136"
           d="m 838.18224,291.55142 -3.74582,-5.73339 7.80737,0.0682 z"
           style="fill:#474747;fill-opacity:1;stroke:none" />
      </g>
      <g
         transform="matrix(1.0599868,0,0,1.0599868,-50.627548,-20.761672)"
         id="g14298">
        <path
           inkscape:connector-curvature="0"
           id="path14296"
           transform="matrix(0.94340797,0,0,0.94340797,228.6827,-639.04686)"
           d="m 619.58203,999.92188 c 0,0 -2.66726,10.91642 1.00586,20.21092 a 21.540816,21.102389 0 0 0 -0.24219,3.0117 21.540816,21.102389 0 0 0 0.22852,2.8887 c -1.08645,0 -2.48484,0.1297 -4.04297,0.5957 1.058,5.0729 2.83083,8.0368 4.75391,9.7324 l 41.19336,0 c 1.92231,-1.6961 3.69436,-4.6615 4.75195,-9.7324 -1.54217,-0.4612 -2.92607,-0.5888 -4.00781,-0.5957 5.67524,-8.3733 5.29492,-19.8359 5.29492,-19.8359 -4.56075,0.34 -8.31221,1.3343 -11.12891,2.3281 a 21.540816,21.102389 0 0 0 -15.50195,-6.4844 21.540816,21.102389 0 0 0 -10.97656,2.9746 c -2.59806,-1.6658 -6.4197,-3.682 -11.32813,-5.09372 z"
           style="fill:#474747;fill-opacity:1;stroke:none;stroke-width:1.05998683" />
        <path
           style="opacity:0.61000001;fill:none;stroke:#ffffff;stroke-width:1.33899999;stroke-linecap:round;stroke-linejoin:round;stroke-miterlimit:4;stroke-dasharray:none;stroke-opacity:1"
           d="m 831.52884,331.06387 c 0.92881,2.099 4.5095,2.05715 5.0409,-9.4e-4"
           id="path14014"
           inkscape:connector-curvature="0"
           sodipodi:nodetypes="cc" />
        <circle
           r="2.4748738"
           cy="1028.1438"
           cx="629.50183"
           transform="matrix(2.465373,0,0,-2.465373,-709.0052,2858.917)"
           id="path14144"
           style="color:#000000;display:inline;overflow:visible;visibility:visible;fill:#ffffff;fill-opacity:1;fill-rule:nonzero;stroke:none;stroke-width:1;marker:none;enable-background:accumulate" />
        <circle
           r="2.4748738"
           cy="1028.1438"
           cx="629.50183"
           style="color:#000000;display:inline;overflow:visible;visibility:visible;fill:#474747;fill-opacity:1;fill-rule:nonzero;stroke:none;stroke-width:1;marker:none;enable-background:accumulate"
           id="path14154"
           transform="matrix(1.5625911,0,0,-1.5625911,-140.80971,1929.2223)" />
        <circle
           r="2.4748738"
           cy="1028.1438"
           cx="629.50183"
           style="color:#000000;display:inline;overflow:visible;visibility:visible;fill:#ffffff;fill-opacity:1;fill-rule:nonzero;stroke:none;stroke-width:1;marker:none;enable-background:accumulate"
           id="path14330"
           transform="matrix(2.465373,0,0,-2.465373,-726.81202,2858.917)" />
        <circle
           r="2.4748738"
           cy="1028.1438"
           cx="629.50183"
           transform="matrix(1.5625911,0,0,-1.5625911,-158.61653,1929.2223)"
           id="path14332"
           style="color:#000000;display:inline;overflow:visible;visibility:visible;fill:#474747;fill-opacity:1;fill-rule:nonzero;stroke:none;stroke-width:1;marker:none;enable-background:accumulate" />
      </g>
      <circle
         r="2.4748738"
         cy="1028.1438"
         cx="629.50183"
         transform="matrix(2.5152397,0,0,-2.2475527,-776.24536,2649.275)"
         id="path14142-9"
         style="color:#000000;display:inline;overflow:visible;visibility:visible;fill:#474747;fill-opacity:1;fill-rule:nonzero;stroke:none;stroke-width:1;marker:none;enable-background:accumulate" />
      <circle
         r="2.4748738"
         cy="1028.1438"
         cx="629.50183"
         style="color:#000000;display:inline;overflow:visible;visibility:visible;fill:#474747;fill-opacity:1;fill-rule:nonzero;stroke:none;stroke-width:1;marker:none;enable-background:accumulate"
         id="path14328"
         transform="matrix(2.5152397,0,0,-2.2475527,-723.54604,2649.9)" />
      <text
         sodipodi:linespacing="125%"
         id="text4662"
         y="278.21927"
         x="845.27307"
         style="font-style:normal;font-weight:normal;font-size:40px;line-height:125%;font-family:sans-serif;letter-spacing:0px;word-spacing:0px;fill:#000000;fill-opacity:1;stroke:none;stroke-width:1px;stroke-linecap:butt;stroke-linejoin:miter;stroke-opacity:1"
         xml:space="preserve"><tspan
           y="278.21927"
           x="845.27307"
           id="tspan4664"
           sodipodi:role="line" /></text>
    </g>
  </g>
</svg>
