<?xml version="1.0" encoding="UTF-8" standalone="no"?>
<!-- Created with Inkscape (http://www.inkscape.org/) -->

<svg
   xmlns:dc="http://purl.org/dc/elements/1.1/"
   xmlns:cc="http://creativecommons.org/ns#"
   xmlns:rdf="http://www.w3.org/1999/02/22-rdf-syntax-ns#"
   xmlns:svg="http://www.w3.org/2000/svg"
   xmlns="http://www.w3.org/2000/svg"
   xmlns:sodipodi="http://sodipodi.sourceforge.net/DTD/sodipodi-0.dtd"
   xmlns:inkscape="http://www.inkscape.org/namespaces/inkscape"
   width="76.133781mm"
   height="9.7605562mm"
   viewBox="0 0 76.133781 9.7605563"
   id="svg4483"
   version="1.1"
   inkscape:version="0.91+devel r14094"
   sodipodi:docname="logo.svg">
  <defs
     id="defs4485" />
  <sodipodi:namedview
     id="base"
     pagecolor="#ffffff"
     bordercolor="#666666"
     borderopacity="1.0"
     inkscape:pageopacity="0.0"
     inkscape:pageshadow="2"
     inkscape:zoom="2.8284271"
     inkscape:cx="86.329694"
     inkscape:cy="-20.641776"
     inkscape:document-units="mm"
     inkscape:current-layer="g16995"
     showgrid="false"
     fit-margin-top="0"
     fit-margin-left="0"
     fit-margin-right="0"
     fit-margin-bottom="0"
     showborder="false"
     inkscape:window-width="1280"
     inkscape:window-height="751"
     inkscape:window-x="0"
     inkscape:window-y="0"
     inkscape:window-maximized="1" />
  <metadata
     id="metadata4488">
    <rdf:RDF>
      <cc:Work
         rdf:about="">
        <dc:format>image/svg+xml</dc:format>
        <dc:type
           rdf:resource="http://purl.org/dc/dcmitype/StillImage" />
        <dc:title></dc:title>
      </cc:Work>
    </rdf:RDF>
  </metadata>
  <g
     inkscape:label="Layer 1"
     inkscape:groupmode="layer"
     id="layer1"
     transform="translate(2.4460191,-122.92654)">
    <g
       id="g16995"
       transform="matrix(0.22999368,0,0,0.22999368,-53.459469,45.255841)"
       style="display:inline;fill:#282828;fill-opacity:1">
      <g
         transform="matrix(1.0148659,0,0,1.0148659,252.00398,256.48604)"
         style="font-style:normal;font-variant:normal;font-weight:bold;font-stretch:normal;font-size:40px;line-height:125%;font-family:Dosis;-inkscape-font-specification:'Dosis Bold';letter-spacing:0px;word-spacing:0px;fill:#282828;fill-opacity:1;stroke:none;stroke-width:1px;stroke-linecap:butt;stroke-linejoin:miter;stroke-opacity:1"
         aria-label="VILLAGE INC."
         id="flowRoot5643">
        <path
           d="m 50.717422,88.480547 q 0,-0.92 1.04,-1.52 1.08,-0.64 2.24,-0.64 1.48,0 1.76,1.04 l 6.12,21.680003 6.08,-21.680003 q 0.28,-1.04 1.76,-1.04 1.12,0 2.2,0.64 1.08,0.64 1.08,1.52 0,0.08 -0.08,0.4 l -7.68,25.160003 q -0.24,0.84 -1.2,1.32 -0.96,0.44 -2.16,0.44 -2.76,0 -3.36,-1.76 l -7.72,-25.160003 q -0.08,-0.32 -0.08,-0.4 z"
           id="path5686"
           inkscape:connector-curvature="0" />
        <path
           d="m 75.804297,113.92055 0,-26.000003 q 0,-0.8 0.76,-1.2 0.76,-0.4 1.84,-0.4 1.08,0 1.84,0.4 0.76,0.4 0.76,1.2 l 0,26.000003 q 0,0.76 -0.8,1.2 -0.76,0.44 -1.8,0.44 -1.08,0 -1.84,-0.44 -0.76,-0.44 -0.76,-1.2 z"
           id="path5688"
           inkscape:connector-curvature="0" />
        <path
           d="m 85.804297,113.92055 0,-26.000003 q 0,-0.8 0.76,-1.2 0.76,-0.4 1.84,-0.4 1.08,0 1.84,0.4 0.76,0.4 0.76,1.2 l 0,23.080003 9.760003,0 q 0.72,0 1.12,0.68 0.44,0.68 0.44,1.6 0,0.92 -0.44,1.6 -0.4,0.68 -1.12,0.68 l -12.680003,0 q -0.92,0 -1.6,-0.44 -0.68,-0.44 -0.68,-1.2 z"
           id="path5690"
           inkscape:connector-curvature="0" />
        <path
           d="m 105.1793,113.92055 0,-26.000003 q 0,-0.8 0.76,-1.2 0.76,-0.4 1.84,-0.4 1.08,0 1.84,0.4 0.76,0.4 0.76,1.2 l 0,23.080003 9.76,0 q 0.72,0 1.12,0.68 0.44,0.68 0.44,1.6 0,0.92 -0.44,1.6 -0.4,0.68 -1.12,0.68 l -12.68,0 q -0.92,0 -1.6,-0.44 -0.68,-0.44 -0.68,-1.2 z"
           id="path5692"
           inkscape:connector-curvature="0" />
        <path
           d="m 122.5143,113.40055 q 0,-0.08 0.08,-0.4 l 7.72,-25.160003 q 0.24,-0.84 1.16,-1.28 0.96,-0.48 2.16,-0.48 1.2,0 2.16,0.48 0.96,0.44 1.2,1.28 l 7.72,25.160003 q 0.08,0.32 0.08,0.4 0,0.88 -1.08,1.52 -1.08,0.64 -2.2,0.64 -1.48,0 -1.76,-1.04 l -1.52,-5.32 -9.16,0 -1.52,5.32 q -0.28,1.04 -1.76,1.04 -1.16,0 -2.24,-0.6 -1.04,-0.64 -1.04,-1.56 z m 7.64,-8.28 6.96,0 -3.48,-12.280003 -3.48,12.280003 z"
           id="path5694"
           inkscape:connector-curvature="0" />
        <path
           d="m 147.28117,106.64055 0,-11.160003 q 0,-4.72 2.52,-6.92 2.56,-2.24 6.68,-2.24 4.24,0 6.88,2.08 2.68,2.08 2.68,5.6 0,1.44 -0.64,1.96 -0.6,0.52 -1.96,0.52 -2.56,0 -2.6,-1.64 -0.12,-1.76 -1,-2.84 -0.88,-1.12 -3.16,-1.12 -4.2,0 -4.2,4.6 l 0,11.160003 q 0,4.6 4.16,4.6 2,0 3.08,-1.16 1.12,-1.16 1.12,-3.44 l 0,-2.36 -3.24,0 q -0.76,0 -1.2,-0.6 -0.4,-0.6 -0.4,-1.44 0,-0.8 0.44,-1.4 0.44,-0.64 1.16,-0.64 l 6.8,0 q 0.76,0 1.2,0.52 0.44,0.48 0.44,1.16 l 0,4.76 q 0,4.76 -2.56,6.96 -2.56,2.2 -6.84,2.2 -4.28,0 -6.84,-2.2 -2.52,-2.2 -2.52,-6.96 z"
           id="path5696"
           inkscape:connector-curvature="0" />
        <path
           d="m 170.1793,113.92055 0,-25.960003 q 0,-0.76 0.68,-1.2 0.68,-0.44 1.6,-0.44 l 14.24,0 q 0.8,0 1.2,0.68 0.44,0.68 0.44,1.56 0,0.96 -0.44,1.64 -0.44,0.68 -1.2,0.68 l -11.32,0 0,8 6.08,0 q 0.76,0 1.2,0.64 0.44,0.600003 0.44,1.440003 0,0.76 -0.44,1.4 -0.4,0.6 -1.2,0.6 l -6.08,0 0,8.04 11.32,0 q 0.76,0 1.2,0.68 0.44,0.68 0.44,1.64 0,0.88 -0.44,1.56 -0.4,0.68 -1.2,0.68 l -14.24,0 q -0.92,0 -1.6,-0.44 -0.68,-0.44 -0.68,-1.2 z"
           id="path5698"
           inkscape:connector-curvature="0" />
        <path
           d="m 199.39805,113.92055 0,-26.000003 q 0,-0.8 0.76,-1.2 0.76,-0.4 1.84,-0.4 1.08,0 1.84,0.4 0.76,0.4 0.76,1.2 l 0,26.000003 q 0,0.76 -0.8,1.2 -0.76,0.44 -1.8,0.44 -1.08,0 -1.84,-0.44 -0.76,-0.44 -0.76,-1.2 z"
           id="path5700"
           inkscape:connector-curvature="0" />
        <path
           d="m 209.39805,113.92055 0,-25.960003 q 0,-0.8 0.76,-1.2 0.76,-0.44 1.84,-0.44 1.44,0 2.2,0.52 0.76,0.52 1.68,2.24 l 7.72,14.920003 0,-16.080003 q 0,-0.8 0.76,-1.2 0.76,-0.4 1.84,-0.4 1.08,0 1.84,0.4 0.76,0.4 0.76,1.2 l 0,26.000003 q 0,0.76 -0.8,1.2 -0.76,0.44 -1.8,0.44 -2.12,0 -3,-1.64 l -8.6,-16.080003 0,16.080003 q 0,0.76 -0.8,1.2 -0.76,0.44 -1.8,0.44 -1.08,0 -1.84,-0.44 -0.76,-0.44 -0.76,-1.2 z"
           id="path5702"
           inkscape:connector-curvature="0" />
        <path
           d="m 233.3368,106.64055 0,-11.160003 q 0,-4.72 2.56,-6.92 2.56,-2.24 6.68,-2.24 4.2,0 6.84,2.08 2.68,2.08 2.68,5.52 0,1.48 -0.6,2.04 -0.6,0.52 -2,0.52 -2.56,0 -2.6,-1.64 -0.04,-0.52 -0.12,-0.88 -0.04,-0.4 -0.32,-1 -0.24,-0.64 -0.64,-1.04 -0.4,-0.44 -1.2,-0.72 -0.8,-0.32 -1.88,-0.32 -4.2,0 -4.2,4.6 l 0,11.160003 q 0,4.6 4.28,4.6 1.28,0 2.12,-0.4 0.88,-0.4 1.24,-1.12 0.4,-0.76 0.52,-1.32 0.16,-0.6 0.2,-1.44 0.12,-1.64 2.56,-1.64 1.4,0 2,0.56 0.64,0.52 0.64,2 0,3.6 -2.68,5.76 -2.64,2.16 -6.88,2.16 -4.12,0 -6.68,-2.2 -2.52,-2.24 -2.52,-6.96 z"
           id="path5704"
           inkscape:connector-curvature="0" />
        <path
           d="m 255.04992,115.00055 q -0.76,-0.8 -0.76,-1.92 0,-1.12 0.76,-1.92 0.8,-0.8 1.96,-0.8 1.08,0 1.88,0.8 0.8,0.8 0.8,1.92 0,1.08 -0.8,1.92 -0.8,0.8 -1.88,0.8 -1.16,0 -1.96,-0.8 z"
           id="path5706"
           inkscape:connector-curvature="0" />
      </g>
      <g
         id="g5661"
         transform="matrix(1.2918073,0,0,1.2918073,-64.723946,-98.54566)">
        <path
           style="fill:#282828;fill-opacity:1;stroke-width:1.4419111"
           d="m 4.1757812,18.724609 0,18.166016 18.9960938,0 0,-12.216797 7.197266,0 0,12.216797 18.996093,0 0,-18.166016 -45.1894528,0 z m 5.5175782,5.949219 7.9921876,0 0,5.34961 -7.9921876,0 0,-5.34961 z m 26.1621096,0 7.992187,0 0,5.34961 -7.992187,0 0,-5.34961 z"
           transform="matrix(0.8905306,0,0,0.8905306,221.80371,337.70798)"
           id="rect5651"
           inkscape:connector-curvature="0" />
        <path
           sodipodi:nodetypes="sssssssss"
           inkscape:connector-curvature="0"
           id="rect5653"
           d="m 227.16475,340.27715 36.95805,0 c 0.99583,0 1.53485,0.83697 1.79754,1.79755 l 3.52303,12.88238 c 0.2627,0.96058 -0.80171,1.79754 -1.79754,1.79754 l -44.0041,0 c -0.99584,0 -2.06025,-0.83696 -1.79755,-1.79754 l 3.52303,-12.88238 c 0.2627,-0.96058 0.80171,-1.79755 1.79754,-1.79755 z"
           style="fill:#282828;fill-opacity:1;stroke-width:1.30064511" />
        <rect
           y="337.70798"
           x="233.06125"
           height="9.886488"
           width="5.5775776"
           id="rect5655"
           style="fill:#282828;fill-opacity:1;stroke-width:0.3634645"
           rx="0"
           ry="0" />
      </g>
    </g>
  </g>
</svg>
